<svg viewBox="0 0 980 1380" xmlns="http://www.w3.org/2000/svg" role="img" style="font-family: sans-serif; background:#ffffff;">
<title>Структура биома «остров-цитадель» (финал обсуждения 2026-06-10, виды разделены)</title>
<defs>
<marker id="ar5" viewBox="0 0 10 10" refX="8" refY="5" markerWidth="6.5" markerHeight="6.5" orient="auto-start-reverse"><path d="M0,0 L10,5 L0,10 z" fill="#222222"/></marker>
<marker id="arb5" viewBox="0 0 10 10" refX="8" refY="5" markerWidth="6.5" markerHeight="6.5" orient="auto-start-reverse"><path d="M0,0 L10,5 L0,10 z" fill="#2070c8"/></marker>
</defs>
<text x="60" y="40" font-size="17" font-weight="500" fill="#222222">Остров-цитадель: низкие мальдивы по спирали, высота набирается по острову</text>

<text x="60" y="84" font-size="13" font-weight="500" fill="#666666">Вид сверху</text>
<polygon points="300,140 452,232 402,372 198,382 152,228" fill="#c9c9c9" fill-opacity="0.65" stroke="#666666" stroke-width="1.5"/>
<g stroke="#222222" stroke-width="2">
<line x1="175" y1="320" x2="158" y2="328"/>
<line x1="186" y1="354" x2="170" y2="364"/>
<line x1="210" y1="378" x2="198" y2="392"/>
</g>
<text x="90" y="352" font-size="11" fill="#666666">обрыв</text>
<rect x="180" y="320" width="58" height="52" fill="#e7e2d6" stroke="#222222" stroke-width="2"/>
<rect x="172" y="312" width="74" height="68" fill="none" stroke="#2070c8" stroke-width="1.5" stroke-dasharray="4 4"/>
<line x1="209" y1="320" x2="209" y2="300" stroke="#222222" stroke-width="2"/>
<circle cx="330" cy="198" r="13" fill="#e7e2d6" stroke="#666666" stroke-width="1.5"/>
<circle cx="288" cy="268" r="15" fill="#e7e2d6" stroke="#666666" stroke-width="1.5"/>
<circle cx="362" cy="320" r="18" fill="#e7e2d6" stroke="#666666" stroke-width="1.5"/>
<circle cx="235" cy="690" r="20" fill="#c9c9c9" stroke="#666666" stroke-width="2"/>
<text x="206" y="730" font-size="11" font-weight="500" fill="#222222">старт</text>
<circle cx="450" cy="638" r="18" fill="#c9c9c9" stroke="#666666" stroke-width="1.5"/>
<circle cx="630" cy="545" r="17" fill="#c9c9c9" stroke="#666666" stroke-width="1.5"/>
<circle cx="662" cy="408" r="15" fill="#c9c9c9" stroke="#666666" stroke-width="1.5"/>
<circle cx="572" cy="300" r="13" fill="#c9c9c9" stroke="#666666" stroke-width="1.5"/>
<path d="M 256,683 Q 350,668 432,646" fill="none" stroke="#2070c8" stroke-width="2" stroke-dasharray="5 4" marker-end="url(#arb5)"/>
<path d="M 467,630 Q 555,595 616,554" fill="none" stroke="#2070c8" stroke-width="2" stroke-dasharray="5 4" marker-end="url(#arb5)"/>
<path d="M 638,529 Q 662,475 662,426" fill="none" stroke="#2070c8" stroke-width="2" stroke-dasharray="5 4" marker-end="url(#arb5)"/>
<path d="M 653,395 Q 625,340 586,312" fill="none" stroke="#2070c8" stroke-width="2" stroke-dasharray="5 4" marker-end="url(#arb5)"/>
<path d="M 557,293 Q 510,270 462,246" fill="none" stroke="#2070c8" stroke-width="2" stroke-dasharray="5 4" marker-end="url(#arb5)"/>
<line x1="232" y1="670" x2="207" y2="382" stroke="#222222" stroke-width="1.5" stroke-dasharray="2 6"/>
<path d="M 448,255 Q 400,230 352,202" fill="none" stroke="#222222" stroke-opacity="0.5" stroke-width="1.5" stroke-dasharray="6 5" marker-end="url(#ar5)"/>
<path d="M 440,265 Q 370,270 310,270" fill="none" stroke="#222222" stroke-opacity="0.5" stroke-width="1.5" stroke-dasharray="6 5" marker-end="url(#ar5)"/>
<path d="M 442,275 Q 410,300 384,312" fill="none" stroke="#222222" stroke-opacity="0.5" stroke-width="1.5" stroke-dasharray="6 5" marker-end="url(#ar5)"/>
<text x="540" y="158" font-size="12" font-weight="500" fill="#222222">цель на ближнем к старту углу,</text>
<text x="540" y="176" font-size="12" fill="#222222">прямая видимость со старта</text>
<line x1="536" y1="166" x2="246" y2="340" stroke="#666666" stroke-width="1"/>
<text x="500" y="222" font-size="12" fill="#222222">3 арены — разная высота, любой порядок</text>
<line x1="497" y1="226" x2="382" y2="316" stroke="#666666" stroke-width="1"/>
<text x="710" y="640" font-size="12" fill="#222222">мальдивы — спираль</text>
<text x="710" y="658" font-size="12" fill="#222222">против часовой (тир 1)</text>
<text x="468" y="282" font-size="11" fill="#666666">высадка</text>

<line x1="60" y1="775" x2="920" y2="775" stroke="#c9c9c9" stroke-width="1.5"/>

<text x="60" y="815" font-size="13" font-weight="500" fill="#666666">Вид сбоку (вертикаль не в масштабе — высоты подписаны)</text>
<rect x="60" y="1290" width="860" height="14" fill="#2070c8" fill-opacity="0.18"/>
<text x="888" y="1318" font-size="11" fill="#666666">океан</text>
<polygon points="100,1290 108,1020 176,1016 640,1238 668,1290" fill="#c9c9c9" stroke="#666666" stroke-width="1.5"/>
<line x1="100" y1="1024" x2="100" y2="1288" stroke="#222222" stroke-width="2.5"/>
<rect x="116" y="964" width="48" height="52" fill="#e7e2d6" stroke="#666666" stroke-width="1.5"/>
<line x1="140" y1="964" x2="140" y2="932" stroke="#222222" stroke-width="2"/>
<circle cx="140" cy="927" r="4" fill="none" stroke="#2070c8" stroke-width="2"/>
<text x="182" y="952" font-size="12" font-weight="500" fill="#222222">цитадель — 150–200 м</text>
<line x1="180" y1="956" x2="160" y2="970" stroke="#666666" stroke-width="1"/>
<text x="64" y="1190" font-size="11" fill="#666666" transform="rotate(-90 64 1190)">обрыв</text>
<rect x="360" y="1090" width="26" height="16" fill="#e7e2d6" stroke="#666666"/>
<rect x="455" y="1136" width="26" height="16" fill="#e7e2d6" stroke="#666666"/>
<rect x="545" y="1180" width="26" height="16" fill="#e7e2d6" stroke="#666666"/>
<text x="296" y="1064" font-size="12" fill="#222222">3 арены на разной высоте склона</text>
<line x1="372" y1="1072" x2="372" y2="1088" stroke="#666666" stroke-width="1"/>
<text x="600" y="1262" font-size="11" fill="#666666">плечо 40–50 м</text>
<rect x="716" y="1232" width="44" height="58" fill="#c9c9c9" stroke="#666666" stroke-width="1.5"/>
<rect x="800" y="1248" width="40" height="42" fill="#c9c9c9" stroke="#666666" stroke-width="1.5"/>
<rect x="872" y="1264" width="36" height="26" fill="#c9c9c9" stroke="#666666" stroke-width="1.5"/>
<rect x="722" y="1222" width="14" height="10" fill="#e7e2d6" stroke="#666666"/>
<rect x="806" y="1238" width="14" height="10" fill="#e7e2d6" stroke="#666666"/>
<rect x="877" y="1254" width="14" height="10" fill="#e7e2d6" stroke="#666666"/>
<text x="708" y="1214" font-size="11" fill="#222222">25–30 м</text>
<text x="794" y="1230" font-size="11" fill="#222222">10–15 м</text>
<text x="868" y="1246" font-size="11" fill="#222222">5 м</text>
<path d="M 872,1260 Q 850,1236 842,1242" fill="none" stroke="#2070c8" stroke-width="2" stroke-dasharray="5 4" marker-end="url(#arb5)"/>
<path d="M 800,1244 Q 776,1218 762,1226" fill="none" stroke="#2070c8" stroke-width="2" stroke-dasharray="5 4" marker-end="url(#arb5)"/>
<path d="M 716,1228 Q 688,1204 662,1230" fill="none" stroke="#2070c8" stroke-width="2" stroke-dasharray="5 4" marker-end="url(#arb5)"/>
<line x1="884" y1="1252" x2="166" y2="942" stroke="#222222" stroke-width="1" stroke-dasharray="2 6" stroke-opacity="0.7"/>
<text x="540" y="1350" font-size="12" fill="#222222">мальдивы низкие: к высадке не выше 30 м над водой</text>
</svg>
